<svg version="1.1" id="Layer_1" xmlns="http://www.w3.org/2000/svg" xmlns:xlink="http://www.w3.org/1999/xlink" x="0px" y="0px"
	 width="100%" viewBox="0 0 500 250" enable-background="new 0 0 500 250" xml:space="preserve">
<path fill="#FFFFFF" opacity="1.000000" stroke="none" 
	d="
M331.000000,251.000000 
	C220.703278,251.000000 110.906548,251.000000 1.054913,251.000000 
	C1.054913,167.731079 1.054913,84.462120 1.054913,1.096576 
	C167.546677,1.096576 334.093445,1.096576 500.820099,1.096576 
	C500.820099,84.333023 500.820099,167.666473 500.820099,251.000000 
	C444.462189,251.000000 387.981110,251.000000 331.000000,251.000000 
M262.373230,165.352264 
	C275.740631,169.556351 286.539337,164.302307 290.277710,151.494934 
	C292.760620,142.988586 292.640472,134.336029 289.874329,125.918243 
	C286.554413,115.815361 276.980133,110.026550 266.734741,112.351891 
	C262.660980,113.276505 259.000427,116.021652 254.844513,118.090950 
	C254.844513,107.246140 254.844513,96.328720 254.844513,85.098984 
	C249.377228,85.650078 244.354385,86.156372 239.519470,86.643723 
	C239.519470,113.351669 239.519470,139.410873 239.519470,165.486313 
	C244.586517,165.486313 249.294693,165.486313 253.933456,165.486313 
	C254.305984,163.474564 254.610580,161.829651 254.921768,160.149155 
	C257.416840,161.961487 259.539825,163.503555 262.373230,165.352264 
M434.895416,148.648010 
	C437.920685,153.423859 440.902832,158.227982 444.004639,162.953568 
	C444.691589,164.000137 445.763824,165.494690 446.722809,165.544373 
	C451.744659,165.804459 456.787109,165.665894 462.675568,165.665894 
	C457.490356,157.604813 453.138611,150.331039 448.243500,143.443436 
	C445.789612,139.990646 446.081116,137.497101 448.342163,134.199570 
	C452.904968,127.545021 457.068146,120.616501 461.529877,113.590416 
	C447.053589,111.079132 445.694672,111.669998 438.583435,123.142708 
	C437.707672,124.555580 436.833344,125.969719 435.932068,127.366310 
	C433.959167,130.423462 431.969360,133.469742 429.986450,136.520447 
	C429.623322,136.363098 429.260162,136.205750 428.897034,136.048386 
	C428.897034,119.154388 428.897034,102.260384 428.897034,85.094734 
	C423.547089,85.590820 418.645203,86.045357 413.625977,86.510773 
	C413.625977,113.073235 413.625977,139.237564 413.625977,165.428696 
	C418.943268,165.428696 423.860718,165.428696 429.338013,165.428696 
	C429.338013,157.293472 429.338013,149.463989 429.338013,141.634521 
	C429.630005,141.570068 429.921997,141.505630 430.213989,141.441193 
	C431.642487,143.641235 433.070984,145.841278 434.895416,148.648010 
M114.385986,161.971176 
	C114.972359,161.036194 115.558731,160.101212 116.806137,158.112183 
	C117.057198,161.698746 117.183403,163.501694 117.325012,165.524597 
	C122.351608,165.524597 127.227074,165.524597 132.310303,165.524597 
	C132.310303,147.956772 132.310303,130.716049 132.310303,113.276199 
	C127.158592,113.276199 122.257950,113.276199 117.270981,113.276199 
	C117.131836,115.425507 117.010612,117.297958 116.829605,120.093849 
	C111.521713,112.316322 104.620064,110.903015 96.955154,112.439362 
	C88.796898,114.074600 83.986404,119.494110 81.852623,127.347565 
	C79.576691,135.724182 79.519142,144.193604 82.141235,152.454681 
	C86.607323,166.525345 102.117928,171.322479 114.385986,161.971176 
M399.846558,160.368759 
	C408.357605,151.026382 410.312103,133.117523 403.194000,122.772209 
	C400.704315,119.153763 396.698700,115.992462 392.685242,114.135880 
	C385.355682,110.745323 377.449066,111.055412 369.830475,113.834038 
	C360.245972,117.329666 355.220428,125.618217 354.889984,137.462967 
	C354.561829,149.226929 357.031464,159.743973 369.099792,164.550491 
	C379.546204,168.711029 389.965729,167.975388 399.846558,160.368759 
M345.360138,122.274170 
	C338.271057,113.041328 327.071869,109.621986 314.466553,113.025703 
	C304.073242,115.832108 298.799408,123.152290 297.390900,133.444046 
	C296.921204,136.875961 296.917633,140.437668 297.212189,143.896515 
	C298.359833,157.374908 306.858185,165.646713 320.450867,166.794662 
	C334.689392,167.997131 345.559875,161.342331 348.505066,149.052017 
	C350.643982,140.126221 350.359528,131.219055 345.360138,122.274170 
M224.424881,144.940384 
	C227.026291,144.940384 229.627716,144.940384 233.027023,144.940384 
	C232.536438,138.846619 232.524811,133.355820 231.551956,128.040955 
	C230.462234,122.087547 227.192383,117.110680 221.469879,114.573021 
	C211.740005,110.258316 202.103149,110.872787 192.752502,116.016037 
	C179.218384,123.460381 180.382462,154.978241 191.768738,162.152771 
	C200.920029,167.919037 221.574203,168.681564 231.081436,162.448273 
	C230.219223,159.212524 229.334366,155.891815 228.628540,153.242950 
	C221.673416,153.866974 215.127808,154.888153 208.577667,154.918182 
	C202.206482,154.947403 199.484116,151.555145 199.541962,144.940369 
	C207.504868,144.940369 215.473862,144.940369 224.424881,144.940384 
M50.040829,105.594666 
	C50.040829,108.012634 50.040829,110.430595 50.040829,113.275963 
	C46.020412,113.275963 42.766724,113.275963 39.469551,113.275963 
	C39.469551,117.661705 39.469551,121.595284 39.469551,125.842247 
	C43.075729,126.007782 46.464874,126.163361 50.310471,126.339890 
	C50.310471,139.703522 50.310471,152.617477 50.310471,165.575592 
	C55.732491,165.575592 60.656395,165.575592 66.056625,165.575592 
	C66.056625,152.395645 66.056625,139.478928 66.056625,126.086914 
	C70.276199,126.086914 74.038208,126.086914 78.093895,126.086914 
	C78.498154,121.573540 78.861504,117.516815 79.272064,112.933006 
	C74.595009,112.933006 70.503403,112.933006 65.470215,112.933006 
	C66.163910,108.173424 65.472778,102.928131 67.768166,100.153694 
	C69.804779,97.692039 75.158020,97.974342 79.560158,96.922890 
	C79.560158,94.208168 79.735962,91.055885 79.453789,87.945145 
	C79.368340,87.003151 78.161736,85.629936 77.221176,85.377922 
	C61.722492,81.225151 50.674889,89.119576 50.040829,105.594666 
M175.084274,165.823700 
	C177.032394,165.055222 178.980515,164.286728 181.135910,163.436478 
	C179.826294,159.362732 178.684509,155.811081 177.561417,152.317520 
	C170.182648,154.103302 163.023666,156.800079 157.159042,150.241959 
	C153.667114,146.337097 153.355850,133.671463 156.672348,129.245605 
	C162.404358,121.596291 170.021774,124.863091 177.636414,126.362442 
	C178.750839,122.832436 179.876343,119.267326 181.106796,115.369743 
	C172.154480,111.015022 163.245773,110.945107 154.232544,113.603386 
	C146.829681,115.786743 141.213043,120.655075 140.112656,128.248383 
	C139.041550,135.639648 139.089325,143.438171 140.187759,150.828720 
	C141.254120,158.003464 146.555771,163.301010 153.645996,164.753448 
	C160.321564,166.120956 167.377075,165.633682 175.084274,165.823700 
z"/>
<path fill="#405D9B" opacity="1.000000" stroke="none" 
	d="
M262.018036,165.198944 
	C259.539825,163.503555 257.416840,161.961487 254.921768,160.149155 
	C254.610580,161.829651 254.305984,163.474564 253.933456,165.486313 
	C249.294693,165.486313 244.586517,165.486313 239.519470,165.486313 
	C239.519470,139.410873 239.519470,113.351669 239.519470,86.643723 
	C244.354385,86.156372 249.377228,85.650078 254.844513,85.098984 
	C254.844513,96.328720 254.844513,107.246140 254.844513,118.090950 
	C259.000427,116.021652 262.660980,113.276505 266.734741,112.351891 
	C276.980133,110.026550 286.554413,115.815361 289.874329,125.918243 
	C292.640472,134.336029 292.760620,142.988586 290.277710,151.494934 
	C286.539337,164.302307 275.740631,169.556351 262.018036,165.198944 
M275.051514,131.819260 
	C272.663879,126.080345 269.423950,123.914360 264.161987,124.539299 
	C259.132690,125.136620 256.077240,127.989075 255.494644,133.854126 
	C255.074188,138.086990 255.277954,142.487625 255.947052,146.695145 
	C256.716614,151.534271 260.013763,154.095856 265.067230,154.148987 
	C270.306580,154.204056 274.092834,151.932251 274.894379,146.910736 
	C275.637970,142.252060 275.161407,137.398636 275.051514,131.819260 
z"/>
<path fill="#415E9C" opacity="1.000000" stroke="none" 
	d="
M434.697449,148.344666 
	C433.070984,145.841278 431.642487,143.641235 430.213989,141.441193 
	C429.921997,141.505630 429.630005,141.570068 429.338013,141.634521 
	C429.338013,149.463989 429.338013,157.293472 429.338013,165.428696 
	C423.860718,165.428696 418.943268,165.428696 413.625977,165.428696 
	C413.625977,139.237564 413.625977,113.073235 413.625977,86.510773 
	C418.645203,86.045357 423.547089,85.590820 428.897034,85.094734 
	C428.897034,102.260384 428.897034,119.154388 428.897034,136.048386 
	C429.260162,136.205750 429.623322,136.363098 429.986450,136.520447 
	C431.969360,133.469742 433.959167,130.423462 435.932068,127.366310 
	C436.833344,125.969719 437.707672,124.555580 438.583435,123.142708 
	C445.694672,111.669998 447.053589,111.079132 461.529877,113.590416 
	C457.068146,120.616501 452.904968,127.545021 448.342163,134.199570 
	C446.081116,137.497101 445.789612,139.990646 448.243500,143.443436 
	C453.138611,150.331039 457.490356,157.604813 462.675568,165.665894 
	C456.787109,165.665894 451.744659,165.804459 446.722809,165.544373 
	C445.763824,165.494690 444.691589,164.000137 444.004639,162.953568 
	C440.902832,158.227982 437.920685,153.423859 434.697449,148.344666 
z"/>
<path fill="#3F5D9B" opacity="1.000000" stroke="none" 
	d="
M114.134933,162.229034 
	C102.117928,171.322479 86.607323,166.525345 82.141235,152.454681 
	C79.519142,144.193604 79.576691,135.724182 81.852623,127.347565 
	C83.986404,119.494110 88.796898,114.074600 96.955154,112.439362 
	C104.620064,110.903015 111.521713,112.316322 116.829605,120.093849 
	C117.010612,117.297958 117.131836,115.425507 117.270981,113.276199 
	C122.257950,113.276199 127.158592,113.276199 132.310303,113.276199 
	C132.310303,130.716049 132.310303,147.956772 132.310303,165.524597 
	C127.227074,165.524597 122.351608,165.524597 117.325012,165.524597 
	C117.183403,163.501694 117.057198,161.698746 116.806137,158.112183 
	C115.558731,160.101212 114.972359,161.036194 114.134933,162.229034 
M116.171280,145.408188 
	C116.114639,140.953995 116.466232,136.446350 115.891830,132.059952 
	C115.258881,127.226425 111.544266,124.440674 106.907951,124.338669 
	C101.964172,124.229904 97.951653,126.937828 97.182632,131.833923 
	C96.522972,136.033722 96.424210,140.428467 96.833832,144.663849 
	C97.419624,150.720673 100.352501,153.594864 105.263374,154.057816 
	C111.147133,154.612473 113.884666,152.623978 116.171280,145.408188 
z"/>
<path fill="#405D9B" opacity="1.000000" stroke="none" 
	d="
M399.581665,160.612289 
	C389.965729,167.975388 379.546204,168.711029 369.099792,164.550491 
	C357.031464,159.743973 354.561829,149.226929 354.889984,137.462967 
	C355.220428,125.618217 360.245972,117.329666 369.830475,113.834038 
	C377.449066,111.055412 385.355682,110.745323 392.685242,114.135880 
	C396.698700,115.992462 400.704315,119.153763 403.194000,122.772209 
	C410.312103,133.117523 408.357605,151.026382 399.581665,160.612289 
M390.594788,147.522858 
	C390.776154,143.065292 391.308472,138.587585 391.054138,134.155029 
	C390.699371,127.973183 386.876740,124.465363 381.246246,124.392601 
	C375.683563,124.320709 371.702576,127.883484 371.113434,133.919067 
	C370.776428,137.371872 370.788483,140.901718 371.072510,144.361633 
	C371.451111,148.973434 373.423584,152.716736 378.357086,153.911880 
	C383.721710,155.211456 387.228882,153.475677 390.594788,147.522858 
z"/>
<path fill="#3F5D9B" opacity="1.000000" stroke="none" 
	d="
M345.574524,122.574783 
	C350.359528,131.219055 350.643982,140.126221 348.505066,149.052017 
	C345.559875,161.342331 334.689392,167.997131 320.450867,166.794662 
	C306.858185,165.646713 298.359833,157.374908 297.212189,143.896515 
	C296.917633,140.437668 296.921204,136.875961 297.390900,133.444046 
	C298.799408,123.152290 304.073242,115.832108 314.466553,113.025703 
	C327.071869,109.621986 338.271057,113.041328 345.574524,122.574783 
M317.018005,126.402481 
	C311.292480,132.404404 312.530823,139.672226 313.801788,146.661057 
	C314.801483,152.158081 318.375519,154.342224 323.948059,154.124435 
	C328.963654,153.928406 332.193604,151.288788 333.043488,145.937943 
	C333.611572,142.361069 333.858368,138.618713 333.486847,135.029282 
	C332.506958,125.562042 326.597015,122.314568 317.018005,126.402481 
z"/>
<path fill="#405D9B" opacity="1.000000" stroke="none" 
	d="
M223.933868,144.940369 
	C215.473862,144.940369 207.504868,144.940369 199.541962,144.940369 
	C199.484116,151.555145 202.206482,154.947403 208.577667,154.918182 
	C215.127808,154.888153 221.673416,153.866974 228.628540,153.242950 
	C229.334366,155.891815 230.219223,159.212524 231.081436,162.448273 
	C221.574203,168.681564 200.920029,167.919037 191.768738,162.152771 
	C180.382462,154.978241 179.218384,123.460381 192.752502,116.016037 
	C202.103149,110.872787 211.740005,110.258316 221.469879,114.573021 
	C227.192383,117.110680 230.462234,122.087547 231.551956,128.040955 
	C232.524811,133.355820 232.536438,138.846619 233.027023,144.940384 
	C229.627716,144.940384 227.026291,144.940384 223.933868,144.940369 
M216.922348,126.897270 
	C213.318771,122.887680 208.356110,121.663589 204.077789,124.002151 
	C199.998703,126.231819 198.745911,129.842773 199.394028,134.257935 
	C205.784943,134.257935 211.823853,134.257935 218.519928,134.257935 
	C218.036240,131.739502 217.642990,129.691956 216.922348,126.897270 
z"/>
<path fill="#3F5C9A" opacity="1.000000" stroke="none" 
	d="
M50.043488,105.129738 
	C50.674889,89.119576 61.722492,81.225151 77.221176,85.377922 
	C78.161736,85.629936 79.368340,87.003151 79.453789,87.945145 
	C79.735962,91.055885 79.560158,94.208168 79.560158,96.922890 
	C75.158020,97.974342 69.804779,97.692039 67.768166,100.153694 
	C65.472778,102.928131 66.163910,108.173424 65.470215,112.933006 
	C70.503403,112.933006 74.595009,112.933006 79.272064,112.933006 
	C78.861504,117.516815 78.498154,121.573540 78.093895,126.086914 
	C74.038208,126.086914 70.276199,126.086914 66.056625,126.086914 
	C66.056625,139.478928 66.056625,152.395645 66.056625,165.575592 
	C60.656395,165.575592 55.732491,165.575592 50.310471,165.575592 
	C50.310471,152.617477 50.310471,139.703522 50.310471,126.339890 
	C46.464874,126.163361 43.075729,126.007782 39.469551,125.842247 
	C39.469551,121.595284 39.469551,117.661705 39.469551,113.275963 
	C42.766724,113.275963 46.020412,113.275963 50.040829,113.275963 
	C50.040829,110.430595 50.040829,108.012634 50.043488,105.129738 
z"/>
<path fill="#405D9B" opacity="1.000000" stroke="none" 
	d="
M174.674866,165.893036 
	C167.377075,165.633682 160.321564,166.120956 153.645996,164.753448 
	C146.555771,163.301010 141.254120,158.003464 140.187759,150.828720 
	C139.089325,143.438171 139.041550,135.639648 140.112656,128.248383 
	C141.213043,120.655075 146.829681,115.786743 154.232544,113.603386 
	C163.245773,110.945107 172.154480,111.015022 181.106796,115.369743 
	C179.876343,119.267326 178.750839,122.832436 177.636414,126.362442 
	C170.021774,124.863091 162.404358,121.596291 156.672348,129.245605 
	C153.355850,133.671463 153.667114,146.337097 157.159042,150.241959 
	C163.023666,156.800079 170.182648,154.103302 177.561417,152.317520 
	C178.684509,155.811081 179.826294,159.362732 181.135910,163.436478 
	C178.980515,164.286728 177.032394,165.055222 174.674866,165.893036 
z"/>
<path fill="#FAFBFC" opacity="1.000000" stroke="none" 
	d="
M275.136841,132.225113 
	C275.161407,137.398636 275.637970,142.252060 274.894379,146.910736 
	C274.092834,151.932251 270.306580,154.204056 265.067230,154.148987 
	C260.013763,154.095856 256.716614,151.534271 255.947052,146.695145 
	C255.277954,142.487625 255.074188,138.086990 255.494644,133.854126 
	C256.077240,127.989075 259.132690,125.136620 264.161987,124.539299 
	C269.423950,123.914360 272.663879,126.080345 275.136841,132.225113 
z"/>
<path fill="#FAFBFC" opacity="1.000000" stroke="none" 
	d="
M116.113068,145.813629 
	C113.884666,152.623978 111.147133,154.612473 105.263374,154.057816 
	C100.352501,153.594864 97.419624,150.720673 96.833832,144.663849 
	C96.424210,140.428467 96.522972,136.033722 97.182632,131.833923 
	C97.951653,126.937828 101.964172,124.229904 106.907951,124.338669 
	C111.544266,124.440674 115.258881,127.226425 115.891830,132.059952 
	C116.466232,136.446350 116.114639,140.953995 116.113068,145.813629 
z"/>
<path fill="#FDFDFE" opacity="1.000000" stroke="none" 
	d="
M390.421509,147.900070 
	C387.228882,153.475677 383.721710,155.211456 378.357086,153.911880 
	C373.423584,152.716736 371.451111,148.973434 371.072510,144.361633 
	C370.788483,140.901718 370.776428,137.371872 371.113434,133.919067 
	C371.702576,127.883484 375.683563,124.320709 381.246246,124.392601 
	C386.876740,124.465363 390.699371,127.973183 391.054138,134.155029 
	C391.308472,138.587585 390.776154,143.065292 390.421509,147.900070 
z"/>
<path fill="#FBFBFD" opacity="1.000000" stroke="none" 
	d="
M317.332642,126.186630 
	C326.597015,122.314568 332.506958,125.562042 333.486847,135.029282 
	C333.858368,138.618713 333.611572,142.361069 333.043488,145.937943 
	C332.193604,151.288788 328.963654,153.928406 323.948059,154.124435 
	C318.375519,154.342224 314.801483,152.158081 313.801788,146.661057 
	C312.530823,139.672226 311.292480,132.404404 317.332642,126.186630 
z"/>
<path fill="#F2F4F8" opacity="1.000000" stroke="none" 
	d="
M217.086029,127.270844 
	C217.642990,129.691956 218.036240,131.739502 218.519928,134.257935 
	C211.823853,134.257935 205.784943,134.257935 199.394028,134.257935 
	C198.745911,129.842773 199.998703,126.231819 204.077789,124.002151 
	C208.356110,121.663589 213.318771,122.887680 217.086029,127.270844 
z"/>
</svg>